# xmcd
#
# Track frame offsets: 
#        150
#        12032
#        23514
#        36125
#        51602
#        65010
#        74919
#        85651
#        95819
#        106845
#
# Disc length: 1545 seconds
#
# Revision: 0
# Processed by: cddbd v1.5.2PL0 Copyright (c) Steve Scherf et al.
# Submitted via: ExactAudioCopyFreeDBPlugin 1.0
#
DISCID=8506070a
DTITLE=Porter Wagoner - The Farmer
DYEAR=1973
DGENRE=Country
TTITLE0=Conversation
TTITLE1=The Farmer
TTITLE2=Daddy's Working Boots
TTITLE3=My Dad
TTITLE4=Moments Of Meditation
TTITLE5=Wake Up, Jacob
TTITLE6=The County Farm
TTITLE7=The Sun Don't Shine
TTITLE8=Country Bo-Bo
TTITLE9=Bones
EXTD=
EXTT0=
EXTT1=
EXTT2=
EXTT3=
EXTT4=
EXTT5=
EXTT6=
EXTT7=
EXTT8=
EXTT9=
PLAYORDER=
